<svg xmlns="http://www.w3.org/2000/svg" width="20" height="20"><rect x="20%" y="0%" width="20%" height="20%" fill="#a1a1aa"/><rect x="40%" y="0%" width="20%" height="20%" fill="#a1a1aa"/><rect x="60%" y="0%" width="20%" height="20%" fill="#a1a1aa"/><rect x="0%" y="20%" width="20%" height="20%" fill="#a1a1aa"/><rect x="20%" y="20%" width="20%" height="20%" fill="#a1a1aa"/><rect x="60%" y="20%" width="20%" height="20%" fill="#a1a1aa"/><rect x="80%" y="20%" width="20%" height="20%" fill="#a1a1aa"/><rect x="0%" y="40%" width="20%" height="20%" fill="#a1a1aa"/><rect x="20%" y="40%" width="20%" height="20%" fill="#a1a1aa"/><rect x="40%" y="40%" width="20%" height="20%" fill="#a1a1aa"/><rect x="60%" y="40%" width="20%" height="20%" fill="#a1a1aa"/><rect x="80%" y="40%" width="20%" height="20%" fill="#a1a1aa"/><rect x="20%" y="60%" width="20%" height="20%" fill="#a1a1aa"/><rect x="60%" y="60%" width="20%" height="20%" fill="#a1a1aa"/><rect x="0%" y="80%" width="20%" height="20%" fill="#a1a1aa"/><rect x="80%" y="80%" width="20%" height="20%" fill="#a1a1aa"/></svg>